<?xml version="1.0" encoding="utf-8"?>
<!-- Generator: Adobe Illustrator 19.2.1, SVG Export Plug-In . SVG Version: 6.00 Build 0)  -->
<svg version="1.1" id="layer" xmlns="http://www.w3.org/2000/svg" xmlns:xlink="http://www.w3.org/1999/xlink" x="0px" y="0px"
	 viewBox="0 0 652 652" style="enable-background:new 0 0 652 652;" xml:space="preserve">
<style type="text/css">
	.st0{fill:#7AA5B7;}
	.st1{fill:#355E6F;}
</style>
<polygon class="st0" points="26,400.8 26,460.8 66.3,460.8 66.3,450.1 37.3,450.1 37.3,400.8 "/>
<g>
	<path class="st0" d="M111.9,445.1c0,0.3,0,0.7-0.3,1l-3.3,3.3c-0.3,0.3-0.7,0.3-1,0.3H93.9c-0.3,0-0.7,0-1-0.3l-3.3-3.3
		c-0.3-0.3-0.3-0.7-0.3-1v-44.3H77.9v46c0,1.7,0.7,3.3,2,4.7l7.3,7.3c1.3,1.3,3,2,4.7,2h17.7c1.7,0,3.3-0.7,4.7-2l7.3-7.3
		c1.3-1.3,2-3,2-4.7v-46h-11.3v44.3H111.9z"/>
	<path class="st0" d="M366.1,400.8v44.6c-1.3-3-19-44.6-19-44.6h-15.7v60h11v-44.6c1.3,3,19,44.6,19,44.6h15.7v-60H366.1z"/>
	<path class="st0" d="M150.9,443.5l29.7-17c2.3-1.3,3.7-3.3,4-6v-19.7h-44.3v11h33v5.3c0,0.7-0.3,1-1,1.3l-29.7,17
		c-2.3,1.3-3.7,3.3-4,6v19.3h46v-11h-34.6v-5.3C149.9,444.1,150.2,443.8,150.9,443.5"/>
	<path class="st0" d="M278.5,426.8v-15h19.7c0.3,0,0.7,0,1,0.3l2,2c0.3,0.3,0.3,0.7,0.3,1v8.3c0,0.3,0,0.7-0.3,1l-2,2
		c-0.3,0.3-0.7,0.3-1,0.3H278.5z M308.8,450.1c-4-5-9.3-12-10-12.7h1.3c1.7,0,3.3-0.7,4.7-2l6-6c1.3-1.3,2-3,2-4.7v-11.7
		c0-2-0.7-3.3-2-4.7l-6-6c-1.3-1.3-2.7-2-4.7-2h-40.3v11h7.3v49.3h11.3v-23.3h6c0.7,0,1,0.3,1.3,0.7l17.7,22.7h3.3h9.3v-11h-7.3
		V450.1z"/>
</g>
<polygon class="st0" points="198.9,400.8 198.9,411.5 206.2,411.5 206.2,460.8 246.5,460.8 246.5,450.1 217.5,450.1 217.5,436.1 
	239.2,436.1 239.2,425.5 217.5,425.5 217.5,411.5 246.5,411.5 246.5,400.8 "/>
<polygon class="st1" points="60.3,310.9 60.3,335.5 37.3,335.5 37.3,310.9 26,310.9 26,370.8 37.3,370.8 37.3,346.2 60.3,346.2 
	60.3,370.8 71.6,370.8 71.6,310.9 "/>
<g>
	<path class="st1" d="M129.2,326.5v28.7c0,0.3,0,0.7-0.3,1l-3.3,3.3c-0.3,0.3-0.7,0.3-1,0.3h-18.7c-0.3,0-0.7,0-1-0.3l-3.3-3.3
		c-0.3-0.3-0.3-0.7-0.3-1v-28.7c0-0.3,0-0.7,0.3-1l3.3-3.3c0.3-0.3,0.7-0.3,1-0.3h18.7c0.3,0,0.7,0,1,0.3l3.3,3.3
		C128.9,325.9,129.2,326.2,129.2,326.5 M138.6,320.2l-7.3-7.3c-1.3-1.3-3-2-4.7-2h-23.3c-1.7,0-3.3,0.7-4.7,2l-7.3,7.3
		c-1.3,1.3-2,3-2,4.7v32c0,1.7,0.7,3.3,2,4.7l7.3,7.3c1.3,1.3,3,2,4.7,2h23.3c1.7,0,3.3-0.7,4.7-2l7.3-7.3c1.3-1.3,2-3,2-4.7v-32
		C140.6,322.9,139.9,321.5,138.6,320.2"/>
	<path class="st1" d="M187.9,359.5c-0.3,0.3-0.7,0.3-1,0.3h-14.7c-0.3,0-0.7,0-1-0.3l-3.3-3.3c-0.3-0.3-0.3-0.7-0.3-1v-28.7
		c0-0.3,0-0.7,0.3-1l3.3-3.3c0.3-0.3,0.7-0.3,1-0.3h14.7c0.3,0,0.7,0,1,0.3l6.3,6.3l7.7-7.7l-8-8c-1.3-1.3-3-2-4.7-2h-19.3
		c-1.7,0-3.3,0.7-4.7,2l-7.3,7.3c-1.3,1.3-2,3-2,4.7v32c0,1.7,0.7,3.3,2,4.7l7.3,7.3c1.3,1.3,3,2,4.7,2h19.3c1.7,0,3.3-0.7,4.7-2
		l8-8l-7.7-7.7L187.9,359.5z"/>
</g>
<polygon class="st1" points="250.2,310.9 250.2,335.5 227.2,335.5 227.2,310.9 215.5,310.9 215.5,370.8 227.2,370.8 227.2,346.2 
	250.2,346.2 250.2,370.8 261.5,370.8 261.5,310.9 "/>
<g>
	<path class="st1" d="M373.4,359.5c-0.3,0.3-0.7,0.3-1,0.3h-14.7c-0.3,0-0.7,0-1-0.3l-3.3-3.3c-0.3-0.3-0.3-0.7-0.3-1v-28.7
		c0-0.3,0-0.7,0.3-1l3.3-3.3c0.3-0.3,0.7-0.3,1-0.3h14.7c0.3,0,0.7,0,1,0.3l6.3,6.3l7.7-7.7l-8-8c-1.3-1.3-3-2-4.7-2h-19.3
		c-1.7,0-3.3,0.7-4.7,2l-7.3,7.3c-1.3,1.3-2,3-2,4.7v32c0,1.7,0.7,3.3,2,4.7l7.3,7.3c1.3,1.3,3,2,4.7,2h19.3c1.7,0,3.3-0.7,4.7-2
		l8-8l-7.7-7.7L373.4,359.5z"/>
</g>
<polygon class="st1" points="435.7,310.9 435.7,335.5 412.7,335.5 412.7,310.9 401.4,310.9 401.4,370.8 412.7,370.8 412.7,346.2 
	435.7,346.2 435.7,370.8 447.4,370.8 447.4,310.9 "/>
<g>
	<path class="st1" d="M500.7,310.9v44.3c0,0.3,0,0.7-0.3,1l-3.3,3.3c-0.3,0.3-0.7,0.3-1,0.3h-13.3c-0.3,0-0.7,0-1-0.3l-3.3-3.3
		c-0.3-0.3-0.3-0.7-0.3-1v-44.3h-11.3v46c0,1.7,0.7,3.3,2,4.7l7.3,7.3c1.3,1.3,3,2,4.7,2h18c1.7,0,3.3-0.7,4.7-2l7.3-7.3
		c1.3-1.3,2-3,2-4.7v-46H500.7z"/>
</g>
<polygon class="st1" points="542.7,360.2 542.7,310.9 531.3,310.9 531.3,370.8 571.6,370.8 571.6,360.2 "/>
<g>
	<path class="st1" d="M321.1,337.9l-30.6-4.3c-0.7,0-1.3-0.7-1.3-1.3v-5.7c0-0.3,0-0.7,0.3-1l3.3-3.3c0.3-0.3,0.7-0.3,1-0.3h17
		c0.3,0,0.7,0,1,0.3l6.3,6.3l7.7-7.7l-7.7-7.7c-1.3-1.3-3-2-4.7-2h-21.7c-1.7,0-3.3,0.7-4.7,2l-7.3,7.3c-1.3,1.3-2,3-2,4.7v11.7
		c0,3.7,2.7,6.7,6.3,7.3l30.3,4.3c0.7,0,1.3,0.7,1.3,1.3v5.7c0,0.3,0,0.7-0.3,1l-3.3,3.3c-0.3,0.3-0.7,0.3-1,0.3h-20.3
		c-0.3,0-0.7,0-1-0.3l-6.3-6.3l-7,7.7l7.7,7.7c1.3,1.3,3,2,4.7,2h25c1.7,0,3.3-0.7,4.7-2l7.3-7.3c1.3-1.3,2-3,2-4.7v-11.7
		C327.8,341.5,324.8,338.5,321.1,337.9"/>
</g>
<polygon class="st1" points="578.3,310.9 578.3,321.5 585.6,321.5 585.6,370.8 626,370.8 626,360.2 597,360.2 597,346.2 619,346.2 
	619,335.5 597,335.5 597,321.5 626,321.5 626,310.9 "/>
<g>
	<path class="st1" d="M362.4,190.9c0-0.3,0-0.3-0.3-0.7c-1-0.3-2-0.7-3.3-0.7c-3.3,0-5,2-5.7,5c0,0.7,0,1.7,0,2.7v0.7h-2
		c-0.3,0-0.3,0-0.3,0.3v1c0,0.3,0,0.7,0.3,0.7h2v14.7c0,0.3,0.3,0.7,0.7,0.7h1.7c0.3,0,0.7-0.3,0.7-0.7v-14.3h4.3
		c0.3,0,0.3,0,0.3-0.3v-1.3c0-0.3-0.3-0.3-0.7-0.3h-4v-1.7c0-2.7,0.7-4.3,3-4.3c0.7,0,1.7,0.3,2.3,0.3h0.3c0.3,0,0.3,0,0.3-0.3
		l0.3-1C362.4,191.3,362.4,190.9,362.4,190.9 M344.1,206.6c0,3.3-1.3,6.7-5,6.7c-3.7,0-5-3.3-5-6.7c0-3,1.3-6.3,5-6.3
		C342.8,200.3,344.1,203.6,344.1,206.6 M347.1,206.6c0-5-2.3-8.7-7.7-8.7s-8,4-8,9s2.3,9,8,9C344.4,215.6,347.1,211.6,347.1,206.6
		 M318.8,198.6c0-0.3,0-0.3-0.3-0.3h-2c-0.3,0-0.7,0-0.7,0.7l-4.3,13l-4.7-13.3c0-0.3-0.3-0.3-0.7-0.3h-2.3c-0.3,0-0.3,0-0.3,0.3
		v0.3l6.3,16.7l-1,2.3c-0.7,2-2,2.7-4,2.7c-0.3,0-1,0-1.3,0l0,0c-0.3,0-0.3,0-0.7,0.3l0,1.3v0.3c0,0.3,0,0.3,0.3,0.7
		c0.7,0,1,0,1.7,0c3.7,0,5.7-1.3,7-5.7L318.8,198.6C318.8,198.9,318.8,198.6,318.8,198.6 M300.5,214.3L300.5,214.3l-0.3-1.3
		c0-0.3-0.3-0.3-0.3-0.3s0,0-0.3,0c-0.7,0.3-1.3,0.3-2.3,0.3c-1,0-1.7-0.3-2-0.7c-0.7-0.7-0.7-1.7-0.7-2.7v-9.3h4
		c0.3,0,0.7,0,0.7-0.3v-1.3c0-0.3-0.3-0.3-0.3-0.3h-4v-4.3c0-0.3-0.3-0.7-0.7-0.7l0,0l-1.7,0.3c-0.3,0-0.7,0.3-0.7,0.7v4h-2
		c-0.3,0-0.3,0-0.3,0.3v1c0,0.3,0,0.7,0.7,0.7h2v9.3c0,2.3,0,3.7,1,4.7c0.7,1,2.3,1.3,4,1.3c1.3,0,2.3-0.3,3.3-0.7
		C300.1,214.9,300.5,214.6,300.5,214.3 M284.8,214.6v-15.7c0-0.3-0.3-0.7-0.7-0.7h-1.7c-0.3,0-0.7,0.3-0.7,0.7v15.7
		c0,0.3,0.3,0.7,0.7,0.7h1.7C284.5,215.3,284.8,214.9,284.8,214.6 M285.1,193.9c0-1-1-1.7-2-1.7c-1,0-1.7,0.7-1.7,1.7
		c0,1,1,1.7,1.7,1.7C284.1,195.6,285.1,194.9,285.1,193.9 M276.8,210.3c0-2.3-1.7-3.7-3.7-4.3l-2.7-1.3c-1.3-0.7-2.3-1.3-2.3-2.3
		c0-1.3,1-2.3,3-2.3c1,0,2.7,0.3,3.7,1h0.3c0.3,0,0.3,0,0.3-0.3l0.3-1.3v-0.3c0,0,0-0.3-0.3-0.3c-1.3-0.7-3-0.7-4.3-0.7
		c-3,0-6,1.7-6,4.7c0,2.3,1.7,3.7,3.7,4.3l2.3,1c1.7,0.7,2.7,1.3,2.7,2.7c0,1.7-1.3,2.7-3.3,2.7c-1.3,0-3-0.3-4.3-1c0,0,0,0-0.3,0
		c-0.3,0-0.3,0-0.3,0.3l-0.3,1.3c0,0,0,0,0,0.3c0,0.3,0,0.3,0.3,0.3c1.3,0.7,3,1,5,1C274.1,215.6,276.8,213.6,276.8,210.3
		 M262.2,198.6L262.2,198.6c0-0.3,0-0.7-0.3-0.7c-0.3,0-0.7,0-1,0c-2,0-3.3,1-4,2.3v-1.3c0-0.3-0.3-0.7-0.7-0.7h-1.7
		c-0.3,0-0.7,0.3-0.7,0.7v15.7c0,0.3,0.3,0.7,0.7,0.7h1.7c0.3,0,0.7-0.3,0.7-0.7v-12c1-1.3,2.3-2,3.7-2c0.3,0,0.7,0,1,0l0,0
		c0.3,0,0.3,0,0.3-0.3L262.2,198.6z M246.2,205.3h-9c0.3-2.7,2-5,5-5c2.7,0,4,2,4,4.3V205.3z M249.2,206.3v-0.7c0-2.3-0.7-4.3-2-5.7
		c-1.3-1.3-2.7-2-5-2c-5,0-8.3,4-8.3,9c0,5.3,3,9,8.3,9c1.7,0,4-0.3,5.3-1c0.3,0,0.3-0.3,0.3-0.3s0,0,0-0.3l-0.3-1.3
		c0-0.3-0.3-0.3-0.3-0.3h-0.3c-1,0.3-2.7,0.7-4.3,0.7c-3.7,0-5.3-2.7-5.7-6h11C248.8,207.3,249.2,206.9,249.2,206.3 M230.8,198.6
		c0-0.3-0.3-0.3-0.7-0.3h-1.7c-0.3,0-0.7,0-1,0.7l-3.3,9.7c-0.3,1.3-1,2.7-1,3.3l0,0c-0.3-0.7-0.7-2-1-3.3l-3.3-9.7
		c0-0.3-0.3-0.3-1-0.3h-2c-0.3,0-0.7,0-0.7,0.3v0.3l6.7,15.3c0,0.3,0.3,0.7,1,0.7h1.7c0.3,0,0.7,0,0.7-0.7L230.8,198.6L230.8,198.6
		 M211.5,214.6v-15.7c0-0.3-0.3-0.7-0.7-0.7h-1.7c-0.3,0-0.7,0.3-0.7,0.7v15.7c0,0.3,0.3,0.7,0.7,0.7h1.7
		C211.2,215.3,211.5,214.9,211.5,214.6 M211.8,193.9c0-1-1-1.7-2-1.7c-1,0-1.7,0.7-1.7,1.7c0,1,1,1.7,1.7,1.7
		C210.8,195.6,211.8,194.9,211.8,193.9 M202.2,214.6v-10.3c0-4-1.7-6.3-5.7-6.3c-2,0-4.3,0.7-5.7,2v-1c0-0.3-0.3-0.7-0.7-0.7h-1.7
		c-0.3,0-0.7,0.3-0.7,0.7v15.7c0,0.3,0.3,0.7,0.7,0.7h1.7c0.3,0,0.7-0.3,0.7-0.7v-12.3c1.3-1,3.3-2,5-2c2.7,0,3.3,1.7,3.3,4.3v10
		c0,0.3,0.3,0.7,0.7,0.7h1.7C201.9,215.3,202.2,214.9,202.2,214.6 M181.5,204.6v-13c0-0.3-0.3-0.7-0.7-0.7h-2
		c-0.3,0-0.7,0.3-0.7,0.7v12.3c0,4.7-0.7,8.7-6.3,8.7c-6,0-6.3-4-6.3-8.7v-12.3c0-0.3-0.3-0.7-0.7-0.7h-2c-0.3,0-0.7,0.3-0.7,0.7
		v12.7c0,7,2,11.3,9.7,11.3C178.9,215.6,181.5,211.3,181.5,204.6 M144.6,205.3h-9c0.3-2.7,2-5,5-5c2.7,0,4,2,4,4.3V205.3z
		 M147.5,206.3v-0.7c0-2.3-0.7-4.3-2-5.7c-1-1.3-2.7-2-4.7-2c-5,0-8.3,4-8.3,9c0,5.3,3,9,8.3,9c1.7,0,4-0.3,5.3-1
		c0.3,0,0.3-0.3,0.3-0.3s0,0,0-0.3l-0.3-1.7c0-0.3-0.3-0.3-0.3-0.3h-0.3c-1.3,0.3-2.7,0.7-4.3,0.7c-3.7,0-5.3-2.7-5.7-6h11
		C147.5,207.3,147.5,206.9,147.5,206.3 M127.6,214.6v-10.3c0-4-1.3-6.3-5.7-6.3c-2,0-4,0.7-5.7,2v-1c0-0.3-0.3-0.7-0.7-0.7h-1.7
		c-0.3,0-0.7,0.3-0.7,0.7v15.7c0,0.3,0.3,0.7,0.7,0.7h1.7c0.7,0,0.7-0.3,0.7-0.7v-12.3c1.3-1,3.3-2,5-2c2.7,0,3.3,1.7,3.3,4.3v10
		c0,0.3,0.3,0.7,0.7,0.7h1.7C127.6,215.3,127.6,214.9,127.6,214.6 M109.2,198.6L109.2,198.6c0-0.3,0-0.7-0.3-0.7c-0.3,0-0.7,0-1,0
		c-2,0-3.3,1-4,2.3v-1.3c0-0.3-0.3-0.7-0.7-0.7h-1.7c-0.3,0-0.7,0.3-0.7,0.7v15.7c0,0.3,0.3,0.7,0.7,0.7h1.7c0.3,0,0.7-0.3,0.7-0.7
		v-12c1-1.3,2.3-2.3,3.7-2.3c0.3,0,0.7,0,1,0l0,0c0.3,0,0.3,0,0.3-0.3L109.2,198.6z M93.2,205.3h-9c0.3-2.7,2-5,5-5c2.7,0,4,2,4,4.3
		V205.3z M96.2,206.3v-0.7c0-2.3-0.7-4.3-2-5.7c-1.3-1.3-3-2-5-2c-5,0-8.3,4-8.3,9c0,5.3,3,9,8.3,9c1.7,0,4-0.3,5.3-1
		c0.3,0,0.3-0.3,0.3-0.3s0,0,0-0.3l-0.3-1.3c0-0.3-0.3-0.3-0.3-0.3h-0.3c-1,0.3-2.7,0.7-4.3,0.7c-3.7,0-5.3-2.7-5.7-6h11
		C95.9,207.3,96.2,206.9,96.2,206.3 M77.9,214.3v-0.3l-0.3-1c0-0.3-0.3-0.3-0.3-0.3h-0.3c-1,0.3-2.3,1-4,1c-3.7,0-5.3-3-5.3-6.7
		c0-4,2-6.3,5.3-6.3c1.3,0,2.7,0.3,3.7,1h0.3c0.3,0,0.3-0.3,0.3-0.3l0.3-1v-0.3c0-0.3,0-0.3-0.3-0.3c-1-1.3-2.7-1.7-4.3-1.7
		c-5.3,0-8.3,3.7-8.3,9c0,5.3,2.7,9,8.3,9c1.7,0,3.3-0.3,4.7-1C77.9,214.6,77.9,214.3,77.9,214.3 M59.6,214.6v-15.7
		c0-0.3-0.3-0.7-0.7-0.7h-1.7c-0.3,0-0.7,0.3-0.7,0.7v12c-1,1-3,2-4.7,2c-2.7,0-3.3-1.7-3.3-4.3v-10c0-0.3-0.3-0.7-0.7-0.7h-1.7
		c-0.3,0-0.7,0.3-0.7,0.7v10.3c0,3.7,1.3,6.3,5.7,6.3c2,0,4-0.7,5.7-2v1c0,0.3,0.3,0.7,0.7,0.7h1.7
		C59.3,215.3,59.6,214.9,59.6,214.6 M41.3,214.6v-1.3c0-0.3-0.3-0.7-0.7-0.7h-8.7v-21c0-0.7-0.3-0.7-0.7-0.7h-2
		c-0.7,0-0.7,0.3-0.7,0.7v23c0,0.7,0.3,0.7,0.7,0.7h11.7C41.3,215.3,41.3,215.3,41.3,214.6"/>
	<path class="st1" d="M430.1,255.2c0-2.3-1.7-3.7-3.7-4.3l-2.7-1c-1.3-0.7-2.3-1.3-2.3-2.3s1-2.3,3-2.3c1,0,2.7,0.3,3.7,1h0.3
		c0.3,0,0.3,0,0.3-0.3l0.3-1.3v-0.3c0,0,0-0.3-0.3-0.3c-1.7-0.7-3-1-4.7-1c-3,0-6,1.7-6,4.7c0,2.3,1.7,3.7,3.7,4.3l2.3,1
		c1.7,0.7,2.7,1.3,2.7,2.7c0,1.7-1.3,2.7-3.3,2.7c-1.3,0-3-0.3-4.3-1c0,0,0,0-0.3,0c-0.3,0-0.3,0-0.3,0.3l-0.3,1.3c0,0,0,0,0,0.3
		s0,0.3,0.3,0.3c1,0.7,3,1,5,1C427.1,260.6,430.1,258.6,430.1,255.2 M415.4,259.6C415.4,259.6,415.4,259.2,415.4,259.6l-0.3-1.3
		c0-0.3-0.3-0.3-0.3-0.3s0,0-0.3,0c-0.7,0.3-1.3,0.3-2.3,0.3s-1.7-0.3-2-0.7c-0.7-0.7-0.7-1.7-0.7-2.7v-9.7h4c0.3,0,0.7,0,0.7-0.3
		v-1.3c0-0.3-0.3-0.3-0.7-0.3h-4v-4.3c0-0.3-0.3-0.7-0.7-0.7l0,0l-1.7,0.3c-0.3,0-0.7,0.3-0.7,0.7v4h-2c-0.3,0-0.3,0-0.3,0.3v1
		c0,0.3,0,0.7,0.7,0.7h2v9.3c0,2.3,0,3.7,1,4.7c0.7,1,2.3,1.3,4,1.3c1.3,0,2.3-0.3,3.3-0.7C415.4,259.9,415.4,259.6,415.4,259.6
		 M402.1,243.6L402.1,243.6c0-0.3,0-0.7-0.3-0.7s-0.7,0-1,0c-2,0-3.3,1-4,2.3v-1.3c0-0.3-0.3-0.7-0.7-0.7h-1.7
		c-0.3,0-0.7,0.3-0.7,0.7v15.7c0,0.3,0.3,0.7,0.7,0.7h1.7c0.3,0,0.7-0.3,0.7-0.7v-12c1-1.3,2.3-2,3.7-2c0.3,0,0.7,0,1,0l0,0
		c0.3,0,0.3,0,0.3-0.3L402.1,243.6z M383.1,250.6h-7.3l3-8c0.3-1.3,0.7-2,1-2.7l0,0c0,0.3,0.3,1.3,0.7,2.7L383.1,250.6z
		 M390.1,259.9v-0.3l-8.7-23.3c0-0.3-0.3-0.3-0.7-0.3h-2c-0.3,0-0.7,0.3-0.7,0.3l-9,23v0.3c0,0.3,0,0.3,0.3,0.3h2
		c0.3,0,0.7,0,0.7-0.7l2.3-6.7h9l2.3,6.7c0.3,0.7,0.3,0.7,1,0.7h2.3C389.7,260.2,390.1,260.2,390.1,259.9 M353.1,255.9
		c-1,1.3-2.7,2.3-4.3,2.3c-3,0-4.7-2.7-4.7-6.7c0-4,2-6.3,5-6.3c1.7,0,3.3,1,4,2.3C353.1,247.6,353.1,255.9,353.1,255.9z
		 M356.1,259.6v-23.7c0-0.3-0.3-0.7-0.7-0.7h-0.3l-1.7,0.3c-0.3,0-0.7,0.3-0.7,0.7v8.7c-1-1.3-3-2-4.7-2c-4.7,0-7.7,4-7.7,9
		c0,4.7,2.3,8.7,7.3,8.7c2,0,4-1,5.3-2.3v1.3c0,0.3,0.3,0.7,0.7,0.7h1.7C355.8,260.2,356.1,259.9,356.1,259.6 M335.8,259.6v-10.3
		c0-4-1.7-6.3-5.7-6.3c-2,0-4.3,0.7-5.7,2v-1c0-0.3-0.3-0.7-0.7-0.7h-1.7c-0.3,0-0.7,0.3-0.7,0.7v15.7c0,0.3,0.3,0.7,0.7,0.7h1.7
		c0.3,0,0.7-0.3,0.7-0.7v-12c1.3-1,3.3-2,5-2c2.7,0,3.3,1.7,3.3,4.3v10c0,0.3,0.3,0.7,0.7,0.7h1.7
		C335.8,260.2,335.8,259.9,335.8,259.6 M312.5,254.6c-0.7,1.7-2.3,3.7-4.7,3.7c-2.7,0-4.3-2.3-4.3-6.3c0-4.3,2-6.7,4.7-6.7
		c1.7,0,3.3,1,4.3,2.7V254.6z M317.1,259.9v-1.3c0-0.3-0.3-0.3-0.3-0.3h-0.3c-0.3,0-0.3,0-0.7-0.3c0-0.3-0.3-0.7-0.3-1.7v-12.3
		c0-0.3-0.3-0.7-0.7-0.7h-1.7c-0.3,0-0.7,0.3-0.7,0.7v1.3c-1-1.3-3-2-4.7-2c-4,0-7.7,3.3-7.7,9.3c0,4.3,2,8.7,7,8.7
		c2,0,4.3-1.3,5.3-3l0,0c0,1.3,0.7,2.7,2.3,2.7h1.3C316.8,260.2,317.1,260.2,317.1,259.9 M287.8,255.2c0-2.3-1.7-3.7-3.7-4.3l-2.7-1
		c-1.3-0.7-2.3-1.3-2.3-2.3s1-2.3,3-2.3c1,0,2.7,0.3,3.7,1h0.3c0.3,0,0.3,0,0.3-0.3l0.3-1.3v-0.3c0,0,0-0.3-0.3-0.3
		c-1.7-0.7-3-1-4.7-1c-3,0-6,1.7-6,4.7c0,2.3,1.7,3.7,3.7,4.3l2.3,1c1.7,0.7,2.7,1.3,2.7,2.7c0,1.7-1.3,2.7-3.3,2.7
		c-1.3,0-3-0.3-4.3-1c0,0,0,0-0.3,0c-0.3,0-0.3,0-0.3,0.3l0,1.3c0,0,0,0,0,0.3c0,0.3,0,0.3,0.3,0.3c1.3,0.7,3,1,5,1
		C284.8,260.6,287.8,258.6,287.8,255.2 M269.5,250.2h-9c0.3-2.7,2-5,5-5c2.7,0,4,2,4,4.3V250.2z M272.5,251.2v-0.7
		c0-2.3-0.7-4.3-2-5.7c-1-1.3-2.7-2-4.7-2c-5,0-8.3,4-8.3,9c0,5.3,3,9,8.3,9c1.7,0,4-0.3,5.3-1c0.3,0,0.3-0.3,0.3-0.3s0,0,0-0.3
		l-0.3-1.3c0-0.3-0.3-0.3-0.3-0.3h-0.3c-1,0.3-2.7,0.7-4.3,0.7c-3.7,0-5.3-2.7-5.7-6h11C272.5,252.2,272.5,251.9,272.5,251.2
		 M254.5,259.2v-0.3l-0.3-1c0-0.3-0.3-0.3-0.3-0.3h-0.3c-1,0.3-2.3,1-4,1c-3.7,0-5.3-3-5.3-6.7c0-4,2-6.3,5.3-6.3
		c1.3,0,2.7,0.3,3.7,1h0.3c0.3,0,0.3-0.3,0.3-0.3l0.3-1v-0.3c0-0.3,0-0.3-0.3-0.3c-1.3-0.7-3-1-4.7-1c-5.3,0-8.3,3.7-8.3,9
		c0,5.3,2.7,9,8.3,9c1.7,0,3.3-0.3,4.7-1C254.5,259.6,254.5,259.2,254.5,259.2 M236.2,259.6v-10.3c0-4-1.7-6.3-5.7-6.3
		c-2,0-4,0.7-5.7,2v-1c0-0.3-0.3-0.7-0.7-0.7h-1.7c-0.3,0-0.7,0.3-0.7,0.7v15.7c0,0.3,0.3,0.7,0.7,0.7h1.7c0.3,0,0.7-0.3,0.7-0.7
		v-12c1.3-1,3.3-2,5-2c2.7,0,3.3,1.7,3.3,4.3v10c0,0.3,0.3,0.7,0.7,0.7h1.7C236.2,260.2,236.2,259.9,236.2,259.6 M214.2,250.2h-9
		c0.3-2.7,2-5,5-5c2.7,0,4,2,4,4.3V250.2z M217.2,251.2v-0.7c0-2.3-0.7-4.3-2-5.7c-1-1.3-2.7-2-4.7-2c-5,0-8.3,4-8.3,9
		c0,5.3,3,9,8.3,9c1.7,0,4-0.3,5.3-1c0.3,0,0.3-0.3,0.3-0.3s0,0,0-0.3l-0.3-1.3c0-0.3-0.3-0.3-0.3-0.3h-0.3
		c-1.3,0.3-2.7,0.7-4.3,0.7c-3.7,0-5.3-2.7-5.7-6h11C217.2,252.2,217.2,251.9,217.2,251.2 M196.9,259.6v-15.7c0-0.3-0.3-0.7-0.7-0.7
		h-1.7c-0.3,0-0.7,0.3-0.7,0.7v15.7c0,0.3,0.3,0.7,0.7,0.7h1.7C196.9,260.2,196.9,259.9,196.9,259.6 M197.2,239.2c0-1-1-1.7-2-1.7
		c-1,0-1.7,0.7-1.7,1.7c0,1,1,1.7,1.7,1.7C196.5,240.9,197.2,240.2,197.2,239.2 M189.2,259.2v-0.3l-0.3-1c0-0.3-0.3-0.3-0.3-0.3
		h-0.3c-1,0.3-2.3,1-4,1c-3.7,0-5.3-3-5.3-6.7c0-4,2-6.3,5.3-6.3c1.3,0,2.7,0.3,3.7,1h0.3c0.3,0,0.3-0.3,0.3-0.3l0.3-1v-0.3
		c0-0.3,0-0.3-0.3-0.3c-1.3-0.7-3-1-4.7-1c-5.3,0-8.3,3.7-8.3,9c0,5.3,2.7,9,8.3,9c1.7,0,3.3-0.3,4.7-1
		C188.9,259.6,189.2,259.2,189.2,259.2 M171.9,253.6c0-3.3-2-5-4.7-6.7l-3.7-2c-1.3-0.7-2.7-1.7-2.7-3.7c0-2.3,2.3-3.3,4.3-3.3
		c1.3,0,3,0.3,4.3,1h0.3c0.3,0,0.3,0,0.3-0.3l0.7-1.3v-0.3c0-0.3-0.3-0.3-0.7-0.7c-2-0.7-3.7-1-5.7-1c-3.7,0-7.3,2.3-7.3,6.3
		c0,2.7,1.7,4.3,4,5.7l4.3,2.3c1.7,1,3,2,3,4c0,2.7-2.7,4-5,4c-1.7,0-3.3-0.3-5-1c-0.3,0-0.3,0-0.3,0c-0.3,0-0.3,0-0.3,0.3l-0.3,1.7
		v0.3c0,0.3,0,0.3,0.3,0.7c2,0.7,4,1,6,1C167.9,260.6,171.9,258.2,171.9,253.6 M139.6,255.9c-1,1.3-2.7,2.3-4.3,2.3
		c-3,0-4.7-2.7-4.7-6.7c0-4,2-6.3,5-6.3c1.7,0,3.3,1,4.3,2.3v8.3H139.6z M142.6,259.6v-23.7c0-0.3-0.3-0.7-0.7-0.7h-0.3l-1.7,0.3
		c-0.3,0-0.7,0.3-0.7,0.7v8.7c-1-1.3-3-2-4.7-2c-4.7,0-7.7,4-7.7,9c0,4.7,2.3,8.7,7.3,8.7c2,0,4-1,5.3-2.3v1.3
		c0,0.3,0.3,0.7,0.7,0.7h1.7C142.2,260.2,142.6,259.9,142.6,259.6 M120.6,250.2h-9c0.3-2.7,2-5,5-5c2.7,0,4,2,4,4.3V250.2z
		 M123.6,251.2v-0.7c0-2.3-0.7-4.3-2-5.7c-1.3-1.3-2.7-2-4.7-2c-5,0-8.3,4-8.3,9c0,5.3,3,9,8.3,9c1.7,0,4-0.3,5.3-1
		c0.3,0,0.3-0.3,0.3-0.3s0,0,0-0.3l-0.3-1.3c0-0.3-0.3-0.3-0.3-0.3h-0.3c-1.3,0.3-2.7,0.7-4.3,0.7c-3.7,0-5.3-2.7-5.7-6h11
		C123.2,252.2,123.6,251.9,123.6,251.2 M103.2,259.6v-15.7c0-0.3-0.3-0.7-0.7-0.7h-1.7c-0.3,0-0.7,0.3-0.7,0.7v15.7
		c0,0.3,0.3,0.7,0.7,0.7h1.7C102.9,260.2,103.2,259.9,103.2,259.6 M103.6,239.2c0-1-1-1.7-2-1.7c-1,0-1.7,0.7-1.7,1.7
		c0,1,1,1.7,1.7,1.7C102.6,240.9,103.6,240.2,103.6,239.2 M94.2,259.6v-23.7c0-0.3-0.3-0.7-0.7-0.7h-0.3l-1.7,0.3
		c-0.3,0-0.7,0.3-0.7,0.7v23.3c0,0.3,0.3,0.7,0.7,0.7h1.7C93.9,260.2,94.2,259.9,94.2,259.6 M82.9,251.6c0,3-1.3,6.7-5,6.7
		c-1.7,0-3.7-1-4.3-2.3v-8.3c1-1.3,2.7-2.3,4.3-2.3C81.9,245.2,82.9,248.6,82.9,251.6 M86.2,251.6c0-4.7-2.3-8.7-7.3-8.7
		c-2,0-4,1-5.3,2.3v-1.3c0-0.3-0.3-0.7-0.7-0.7h-1.3c-0.3,0-0.7,0-0.7,0.7v23.3c0,0.3,0.3,0.7,0.7,0.7h1.7c0.3,0,0.7,0,0.7-0.7v-8.7
		c1,1.3,3,2,4.7,2C83.6,260.6,86.2,256.2,86.2,251.6 M62.9,251.6c0,3-1.3,6.7-5,6.7c-1.7,0-3.7-1-4.3-2.3v-8.3
		c1-1.3,2.7-2.3,4.3-2.3C61.9,245.2,62.9,248.6,62.9,251.6 M65.9,251.6c0-4.7-2.3-8.7-7.3-8.7c-2,0-4,1-5.3,2.3v-1.3
		c0-0.3-0.3-0.7-0.7-0.7h-1.3c-0.3,0-0.7,0-0.7,0.7v23.3c0,0.3,0.3,0.7,0.7,0.7h1.7c0.3,0,0.7,0,0.7-0.7v-8.7c1,1.3,3,2,4.7,2
		C63.6,260.6,65.9,256.2,65.9,251.6 M40.3,250.6h-7.7l3-8c0.3-1.3,0.7-2,0.7-2.7l0,0c0,0.3,0.3,1.3,0.7,2.7L40.3,250.6z M46.9,259.9
		v-0.3l-8.7-23.3c0-0.3-0.3-0.3-0.7-0.3h-2c-0.3,0-0.7,0.3-0.7,0.3l-8.7,23.3v0.3c0,0.3,0,0.3,0.3,0.3h2c0.3,0,0.7,0,0.7-0.7
		l2.3-6.7h9l2.3,6.7c0.3,0.7,0.3,0.7,1,0.7h2.3C46.9,260.2,46.9,260.2,46.9,259.9"/>
</g>
</svg>
